<svg preserveAspectRatio="xMidYMid meet" data-bbox="-0.001 0.001 3866.221 893.069" viewBox="0 0 3866.23 893.08" xmlns="http://www.w3.org/2000/svg" data-type="ugc" role="presentation" aria-hidden="true" aria-label="">
    <g>
        <defs>
            <linearGradient gradientUnits="userSpaceOnUse" y2="619.91" x2="585.39" y1="131.07" x1="96.55" id="501b288b-d78c-4b72-8bb1-785ce1845585_comp-m7jtntak">
                <stop stop-color="#e7f9fe" offset="0"></stop>
                <stop stop-color="#95cff5" offset=".52"></stop>
                <stop stop-color="#8ec7ed" offset=".58"></stop>
                <stop stop-color="#7cb1d9" offset=".67"></stop>
                <stop stop-color="#608db7" offset=".78"></stop>
                <stop stop-color="#385c89" offset=".91"></stop>
                <stop stop-color="#1a3666" offset="1"></stop>
            </linearGradient>
        </defs>
        <g>
            <path d="M331.18 305.24v.62s-.1-.03-.13-.07l.13-.56Z" fill="#ff0000"></path>
            <path d="M350.94 305.83s-.1.03-.13.03v-.59z" fill="#ff0000"></path>
            <path d="M331.18 305.24v.62s-.1-.03-.13-.07l.13-.56Z" fill="#ff0000"></path>
            <path d="M350.94 305.83s-.1.03-.13.03v-.59z" fill="#ff0000"></path>
            <path d="M650.6 318.43c15.61-50.88-12.4-115.46-41.19-135.78.88-60.56-37.56-110.68-95.67-124.56-14.95-29.31-48.16-51.96-84.38-56.99-33.73-4.71-64.68 5.82-88.37 29.74C317.3 6.92 286.35-3.61 252.62 1.1c-36.22 5.04-69.46 27.68-84.41 56.99-58.11 13.87-96.52 64-95.63 124.56-28.82 20.32-56.83 84.9-41.19 135.78C2.46 353.5-7.06 404.08 5.28 458.36c10.89 48.09 37.2 88.04 68.08 104.34-2.32 35.99 6.87 66.45 26.83 88.44 18.58 20.51 44.95 31.97 76.53 33.34 11.81 32.06 42.3 52.68 81.37 54.31 1.6.07 3.24.1 4.84.1 32.55 0 61.93-13.87 78.06-35.86 16.1 21.99 45.51 35.86 78.03 35.86 1.64 0 3.24-.03 4.87-.1 39.03-1.64 69.52-22.25 81.34-54.31 31.61-1.37 57.94-12.83 76.56-33.34 19.93-21.99 29.15-52.45 26.83-88.44 30.89-16.29 57.16-56.24 68.09-104.34 12.3-54.28 2.78-104.86-26.11-139.93M350.81 49.1c19.73-22.51 46.56-32.65 75.84-28.56 27.22 3.8 52.32 19.27 65.76 39.85-27.61 9.88-52.9 35.11-61.41 56.37l18.22 7.26c6.61-16.52 31.47-42.07 57.52-47.34 48.95 10.57 81.96 51.43 82.97 101.56h-44.86c-.59-6.81-1.7-13.74-3.3-20.78l-19.11 4.38c6.9 30.17 2.91 58.34-11.26 79.31-9.91 14.69-24.21 24.47-39.2 26.86l3.08 19.4c20.35-3.24 39.46-16.1 52.38-35.3 10.5-15.54 16.49-34.09 17.67-54.25h51.73c23.29 13.84 47.24 70.7 35.53 112.91h-37.46c.36-4.12.52-8.41.52-12.86H575.8c0 26.5-7.43 46.13-20.38 53.82-14.3 8.47-32.88 6.54-47.34-4.91-11.32-8.96-25.62-15.9-42.47-20.64l-5.33 18.91c14.36 4.02 26.34 9.78 35.6 17.14 7.72 6.12 16.33 10.31 25.19 12.53v56.14c0 13.71-5.59 26.17-15.38 34.19-8.51 7-18.52 9.78-28.17 7.79-11.61-2.39-21.99-11.39-29.25-25.39l-17.44 9.03c5.1 9.85 11.55 17.93 18.94 24.01v39.98c0 33.27-27.06 60.33-60.33 60.33H350.8v-97.53h44.23l-31.57-127.04c37.43-9.95 65.07-44.14 65.07-84.64 0-44.95-34.06-82.09-77.74-87V49.1Zm-19.63 631.67c-11.19 27.97-45.05 39.52-72.27 38.38-25.23-1.05-55.1-13.35-64.81-44.5v-.03c5.86-21.4 26.11-32.91 42.76-32.91v-19.63c-22.84 0-50.25 14.92-60.2 42.73-25.75-1.31-47.15-10.53-61.93-26.86-15.57-17.18-23.1-41.29-21.95-70.18 6.02.59 11.61.88 16.88.88 37.49 0 56.8-15.02 73.75-38.48l-15.9-11.52c-17.01 23.56-35.07 35.14-81.07 28.53l-.07-.03C59.25 535.44 34.45 498.17 24.44 454c-10.86-47.8-2.42-93.6 22.61-123.61h43.38c4.71 17.6 13.58 30.79 26.11 38.21 7.69 4.55 16.13 7.13 24.77 7.82v54.47c0 19.6 8.21 37.59 22.54 49.37 10.31 8.47 22.22 12.89 34.35 12.89 3.4 0 6.81-.36 10.21-1.05 1.41-.29 2.78-.62 4.16-1.05v29.45c0 44.1 35.89 79.96 79.99 79.96h38.64v80.29Zm0-99.92h-38.64c-33.27 0-60.36-27.06-60.36-60.33v-39.98c7.43-6.05 13.84-14.17 18.94-24.01l-17.41-9.03c-7.26 14-17.67 23-29.25 25.39-9.68 2-19.66-.79-28.17-7.79-9.78-8.02-15.38-20.48-15.38-34.19v-56.14c8.83-2.22 17.44-6.41 25.16-12.53 9.26-7.36 21.23-13.12 35.6-17.14l-5.3-18.91c-16.88 4.74-31.18 11.68-42.47 20.64-14.49 11.45-33.04 13.38-47.34 4.91-12.96-7.69-20.42-27.32-20.42-53.82H86.51c0 4.45.2 8.74.56 12.86H49.61c-11.75-42.21 12.2-99.07 35.5-112.91h51.76c1.18 20.19 7.13 38.74 17.63 54.25 12.96 19.21 32.03 32.06 52.38 35.3l3.11-19.4c-15.02-2.39-29.32-12.17-39.23-26.86-14.13-20.97-18.13-49.14-11.22-79.31l-19.14-4.38c-1.6 7.03-2.72 13.94-3.27 20.78H92.24c1.01-50.12 34.03-90.99 82.97-101.56 26.08 5.27 50.94 30.82 57.52 47.34l18.26-7.26c-8.51-21.27-33.8-46.49-61.41-56.37 13.45-20.58 38.51-36.05 65.73-39.85 29.31-4.09 56.11 6.05 75.87 28.56v135.55c-43.71 4.91-77.77 42.04-77.77 87 0 40.5 27.65 74.69 65.08 84.64l-31.57 127.04h44.27v97.53Zm9.81-344.77c-3.4 0-6.71.49-9.82 1.37-14.89 4.25-25.75 17.96-25.75 34.19s10.8 29.87 25.62 34.16l.13-.56v.62s-.1-.03-.13-.07l-7.82 31.41c-28.89-7.82-50.19-34.26-50.19-65.57 0-34.12 25.32-62.46 58.14-67.2 3.21-.49 6.48-.72 9.82-.72s6.61.23 9.82.72c32.82 4.74 58.11 33.08 58.11 67.2 0 31.31-21.27 57.75-50.16 65.57l-7.82-31.38s-.1.03-.13.03v-.59l.13.56c14.79-4.32 25.62-17.99 25.62-34.19s-10.9-29.94-25.75-34.19c-3.11-.88-6.41-1.37-9.82-1.37Zm316.58 217.93c-10.04 44.17-34.84 81.43-61.97 93.15l-.07.03c-45.97 6.61-64.03-4.97-81.07-28.53l-15.9 11.52c16.98 23.46 36.25 38.48 73.78 38.48 5.23 0 10.86-.29 16.88-.92 1.15 28.89-6.38 53.04-21.99 70.21-14.79 16.29-36.12 25.52-61.9 26.83-9.98-27.81-37.36-42.7-60.2-42.7v19.63c16.65 0 36.84 11.52 42.73 32.88-9.65 31.21-39.56 43.51-64.81 44.56-27.19 1.18-61.08-10.4-72.24-38.38v-80.29h38.64c44.1 0 79.96-35.86 79.96-79.96v-29.45c1.37.43 2.75.75 4.16 1.05 3.4.69 6.81 1.05 10.21 1.05 12.14 0 24.08-4.42 34.39-12.89 14.33-11.78 22.54-29.77 22.54-49.37V376.4c8.64-.65 17.08-3.24 24.73-7.79 12.53-7.43 21.4-20.61 26.11-38.21h43.42c25 30 33.44 75.81 22.61 123.61Z" fill="#000515"></path>
            <path d="M408.91 271.64c0 31.31-21.27 57.75-50.16 65.57l-7.82-31.38c14.79-4.32 25.62-17.99 25.62-34.19s-10.9-29.94-25.75-34.19c-3.11-.88-6.41-1.37-9.82-1.37s-6.71.49-9.82 1.37c-14.89 4.25-25.75 17.96-25.75 34.19s10.8 29.87 25.62 34.16l-7.82 31.41c-28.89-7.82-50.19-34.26-50.19-65.57 0-34.12 25.32-62.46 58.14-67.2 3.21-.49 6.48-.72 9.82-.72s6.61.23 9.82.72c32.82 4.74 58.11 33.08 58.11 67.2" fill="#fefffe"></path>
            <path d="M331.18 184.64V49.1c-19.76-22.51-46.56-32.65-75.87-28.56-27.22 3.8-52.28 19.27-65.73 39.85 27.61 9.88 52.9 35.11 61.41 56.37l-18.26 7.26c-6.58-16.52-31.44-42.07-57.52-47.34-48.95 10.57-81.96 51.43-82.97 101.56h44.89c.56-6.84 1.67-13.74 3.27-20.78l19.14 4.38c-6.9 30.17-2.91 58.34 11.22 79.31 9.91 14.69 24.21 24.47 39.23 26.86l-3.11 19.4c-20.35-3.24-39.42-16.1-52.38-35.3-10.5-15.51-16.46-34.06-17.63-54.25H85.11c-23.29 13.84-47.24 70.7-35.5 112.91h37.46c-.36-4.12-.56-8.41-.56-12.86h19.63c0 26.5 7.46 46.13 20.42 53.82 14.3 8.47 32.85 6.54 47.34-4.91 11.29-8.96 25.58-15.9 42.47-20.64l5.3 18.91c-14.36 4.02-26.34 9.78-35.6 17.14-7.72 6.12-16.33 10.31-25.16 12.53v56.14c0 13.71 5.59 26.17 15.38 34.19 8.51 7 18.49 9.78 28.17 7.79 11.58-2.39 21.99-11.39 29.25-25.39l17.41 9.03c-5.1 9.85-11.52 17.96-18.94 24.01v39.98c0 33.27 27.09 60.33 60.36 60.33h38.64v-97.53h-44.27l31.57-127.04c-37.43-9.95-65.08-44.14-65.08-84.64 0-44.95 34.06-82.09 77.77-87Zm-38.64 415.84c-44.1 0-79.99-35.86-79.99-79.96v-29.45c-1.37.43-2.75.75-4.16 1.05-3.4.69-6.8 1.05-10.21 1.05-12.14 0-24.05-4.42-34.35-12.89-14.33-11.78-22.54-29.77-22.54-49.37v-54.47c-8.64-.69-17.08-3.27-24.77-7.82-12.53-7.43-21.4-20.61-26.11-38.21H47.03c-25.03 30-33.47 75.81-22.61 123.61 10.01 44.17 34.81 81.43 61.93 93.15l.07.03c46 6.61 64.06-4.97 81.07-28.53l15.9 11.52c-16.95 23.46-36.25 38.48-73.75 38.48-5.27 0-10.86-.29-16.88-.88-1.15 28.89 6.38 53 21.95 70.18 14.79 16.33 36.19 25.55 61.93 26.86 9.95-27.81 37.36-42.73 60.2-42.73v19.63c-16.65 0-36.91 11.52-42.76 32.91v.03c9.72 31.15 39.59 43.45 64.81 44.5 27.22 1.15 61.08-10.4 72.27-38.38V600.5h-38.64ZM634.96 330.4h-43.42c-4.71 17.6-13.58 30.79-26.11 38.21-7.66 4.55-16.1 7.13-24.73 7.79v54.51c0 19.6-8.21 37.59-22.54 49.37-10.31 8.47-22.25 12.89-34.39 12.89-3.4 0-6.81-.36-10.21-1.05a43 43 0 0 1-4.16-1.05v29.45c0 44.1-35.86 79.96-79.96 79.96H350.8v80.29c11.16 27.97 45.05 39.56 72.24 38.38 25.26-1.05 55.16-13.35 64.81-44.56-5.89-21.36-26.08-32.88-42.73-32.88v-19.63c22.84 0 50.22 14.89 60.2 42.7 25.78-1.31 47.11-10.53 61.9-26.83 15.61-17.18 23.13-41.32 21.99-70.21-6.02.62-11.65.92-16.88.92-37.53 0-56.8-15.02-73.78-38.48l15.9-11.52c17.05 23.56 35.11 35.14 81.07 28.53l.07-.03c27.12-11.71 51.92-48.98 61.97-93.15 10.83-47.8 2.39-93.6-22.61-123.61Zm-38.12-132.54h-51.73c-1.18 20.15-7.17 38.7-17.67 54.25-12.92 19.21-32.03 32.06-52.38 35.3l-3.08-19.4c14.98-2.39 29.28-12.17 39.2-26.86 14.17-20.97 18.16-49.14 11.26-79.31l19.11-4.38c1.6 7.03 2.72 13.97 3.3 20.78h44.86c-1.01-50.12-34.03-90.99-82.97-101.56-26.04 5.27-50.91 30.82-57.52 47.34L431 116.76c8.51-21.27 33.8-46.49 61.41-56.37-13.45-20.58-38.54-36.05-65.76-39.85-29.28-4.09-56.11 6.05-75.84 28.56v135.55c43.68 4.91 77.74 42.04 77.74 87 0 40.5-27.65 74.69-65.07 84.64l31.57 127.04h-44.23v97.53h38.64c33.27 0 60.33-27.06 60.33-60.33v-39.98c-7.39-6.09-13.84-14.17-18.94-24.01l17.44-9.03c7.26 14 17.63 23 29.25 25.39 9.65 2 19.66-.79 28.17-7.79 9.78-8.02 15.38-20.48 15.38-34.19v-56.14c-8.87-2.22-17.47-6.41-25.19-12.53-9.26-7.36-21.23-13.12-35.6-17.14l5.33-18.91c16.85 4.74 31.15 11.68 42.47 20.64 14.46 11.45 33.04 13.38 47.34 4.91 12.96-7.69 20.38-27.32 20.38-53.82h19.63c0 4.45-.16 8.74-.52 12.86h37.46c11.71-42.21-12.24-99.07-35.53-112.91Z" fill="url(#501b288b-d78c-4b72-8bb1-785ce1845585_comp-m7jtntak)"></path>
            <path d="M202.45 645.03c-10.57-14.56-15.79-29.53-15.52-44.51l19.63.37c-.2 10.61 3.76 21.58 11.77 32.6z" fill="#000515"></path>
            <path d="m479.51 645.03-15.88-11.54c8.01-11.03 11.97-22 11.77-32.6l19.63-.37c.28 14.98-4.94 29.95-15.52 44.51" fill="#000515"></path>
            <path fill="#000515" d="M577.37 872.19c0 11.532-105.84 20.88-236.4 20.88s-236.4-9.348-236.4-20.88 105.84-20.88 236.4-20.88 236.4 9.348 236.4 20.88"></path>
            <path d="M890.55 235.45h200.88c64.39 0 113.96 47 113.96 111.38 0 43.78-24.47 81.12-56.66 96.58 49.58 12.88 83.7 59.88 83.7 116.54 0 68.88-52.15 119.76-122.33 119.76H890.54V235.45Zm57.31 53.44v135.2h130.05c36.06 0 66.96-28.97 66.96-67.6s-28.97-67.61-66.96-67.61H947.86Zm0 186.07v151.31h148.73c43.14 0 75.33-32.84 75.33-75.98s-32.19-75.32-75.33-75.32H947.86Z" fill="#000515"></path>
            <path d="M1285.26 351.34h55.37v62.45c25.11-42.49 66.32-67.61 117.82-67.61h10.3v57.3h-10.3c-73.39 0-117.82 43.78-117.82 111.39V679.7h-55.37z" fill="#000515"></path>
            <path d="M1495.17 515.52c0-97.86 70.17-171.9 164.19-171.9 54.72 0 99.79 25.75 127.48 66.96v-59.23h55.37v328.36h-55.37v-59.24c-27.7 41.21-72.77 66.97-127.48 66.97-94.01 0-164.19-74.05-164.19-171.91Zm291.67 0c0-67.61-50.22-118.47-117.19-118.47s-117.83 50.86-117.83 118.47 50.22 118.47 117.83 118.47 117.19-50.86 117.19-118.47" fill="#000515"></path>
            <path d="M1894.08 252.19c0-20.6 16.1-36.69 37.34-36.69s36.7 16.1 36.7 36.69-16.1 36.7-36.7 36.7-37.34-15.46-37.34-36.7m9.66 99.15h55.37V679.7h-55.37z" fill="#000515"></path>
            <path d="M2022.88 351.34h55.37v49.57c25.76-36.7 66.97-57.3 118.48-57.3 79.84 0 133.27 52.8 133.27 133.27V679.7h-55.37V494.27c0-58.59-37.34-97.22-95.93-97.22s-100.44 39.28-100.44 98.51v184.15h-55.37V351.35Z" fill="#000515"></path>
            <path d="M2392.44 235.45h171.27c128.77 0 225.34 95.28 225.34 222.13s-96.57 222.13-225.34 222.13h-171.27zm59.23 55.37v333.51h111.38c94.01 0 165.47-71.47 165.47-166.75s-71.46-166.76-165.47-166.76z" fill="#000515"></path>
            <path d="M2839.92 351.34h55.37v62.45c25.12-42.49 66.32-67.61 117.83-67.61h10.3v57.3h-10.3c-73.4 0-117.83 43.78-117.83 111.39V679.7h-55.37z" fill="#000515"></path>
            <path d="M3061.43 252.19c0-20.6 16.1-36.69 37.34-36.69s36.7 16.1 36.7 36.69-16.1 36.7-36.7 36.7-37.34-15.46-37.34-36.7m9.65 99.15h55.37V679.7h-55.37z" fill="#000515"></path>
            <path d="M3170.88 351.34h63.09l110.74 262.05 110.75-262.05h61.81L3373.05 679.7h-57.95z" fill="#000515"></path>
            <path d="M3517.26 515.52c0-97.86 75.32-171.9 174.48-171.9s174.48 74.05 174.48 171.9c0 7.73-.64 16.1-1.28 23.18h-288.45c9.66 57.94 56.01 97.86 117.83 97.86 45.72 0 85.64-21.89 104.31-54.73h61.81c-25.76 63.1-89.5 105.6-166.76 105.6-101.08 0-176.41-74.05-176.41-171.91Zm59.88-26.4h230.49c-9.66-54.73-56.01-94.64-115.89-94.64s-103.66 38.63-114.6 94.64" fill="#000515"></path>
        </g>
    </g>
</svg>
